<mxfile host="65bd71144e">
    <diagram id="BcxFt8vE9k-8H0GFOvJd" name="Page-1">
        <mxGraphModel dx="1506" dy="2127" grid="1" gridSize="10" guides="1" tooltips="1" connect="1" arrows="1" fold="1" page="0" pageScale="1" pageWidth="827" pageHeight="1169" math="0" shadow="0">
            <root>
                <mxCell id="0"/>
                <mxCell id="1" parent="0"/>
                <mxCell id="3" style="edgeStyle=none;html=1;fontSize=14;" parent="1" source="2" target="4" edge="1">
                    <mxGeometry relative="1" as="geometry">
                        <mxPoint x="70" y="-710" as="targetPoint"/>
                    </mxGeometry>
                </mxCell>
                <mxCell id="5" style="edgeStyle=none;html=1;fontSize=14;" parent="1" source="2" target="6" edge="1">
                    <mxGeometry relative="1" as="geometry">
                        <mxPoint x="365" y="-750" as="targetPoint"/>
                    </mxGeometry>
                </mxCell>
                <mxCell id="2" value="&lt;font size=&quot;3&quot;&gt;Name of the Website&lt;/font&gt;" style="rounded=0;whiteSpace=wrap;html=1;" parent="1" vertex="1">
                    <mxGeometry x="260" y="-890" width="210" height="60" as="geometry"/>
                </mxCell>
                <mxCell id="4" value="Login System and Email Verification System" style="rounded=0;whiteSpace=wrap;html=1;fontSize=14;" parent="1" vertex="1">
                    <mxGeometry x="40" y="-750" width="150" height="70" as="geometry"/>
                </mxCell>
                <mxCell id="7" style="edgeStyle=none;html=1;fontSize=14;" parent="1" source="6" edge="1">
                    <mxGeometry relative="1" as="geometry">
                        <mxPoint x="365" y="-700" as="targetPoint"/>
                    </mxGeometry>
                </mxCell>
                <mxCell id="8" style="edgeStyle=none;html=1;fontSize=14;" parent="1" source="6" edge="1">
                    <mxGeometry relative="1" as="geometry">
                        <mxPoint x="350" y="-700" as="targetPoint"/>
                    </mxGeometry>
                </mxCell>
                <mxCell id="10" style="edgeStyle=none;html=1;" parent="1" source="6" target="11" edge="1">
                    <mxGeometry relative="1" as="geometry">
                        <mxPoint x="320" y="-620" as="targetPoint"/>
                    </mxGeometry>
                </mxCell>
                <mxCell id="13" style="edgeStyle=none;html=1;" parent="1" source="6" target="14" edge="1">
                    <mxGeometry relative="1" as="geometry">
                        <mxPoint x="550" y="-715" as="targetPoint"/>
                    </mxGeometry>
                </mxCell>
                <mxCell id="6" value="Integrate the database to store the details of the user" style="rounded=0;whiteSpace=wrap;html=1;fontSize=14;" parent="1" vertex="1">
                    <mxGeometry x="277.5" y="-745" width="175" height="60" as="geometry"/>
                </mxCell>
                <mxCell id="11" value="&lt;b&gt;Table 1 contains&lt;/b&gt;&lt;br&gt;&lt;br&gt;&lt;br&gt;a. Id&lt;br&gt;b. First Name&lt;br&gt;c. Father's Name&lt;br&gt;d. Last name&lt;br&gt;e. E-mail id&lt;br&gt;f. Unique Code&lt;br&gt;g. Standard" style="rounded=0;whiteSpace=wrap;html=1;" parent="1" vertex="1">
                    <mxGeometry x="305" y="-640" width="120" height="210" as="geometry"/>
                </mxCell>
                <mxCell id="14" value="Database used will be&amp;nbsp;&lt;br&gt;PostgreSQL" style="whiteSpace=wrap;html=1;aspect=fixed;" parent="1" vertex="1">
                    <mxGeometry x="580" y="-772.5" width="115" height="115" as="geometry"/>
                </mxCell>
            </root>
        </mxGraphModel>
    </diagram>
</mxfile>